# xmcd
#
# Track frame offsets: 
#        150
#        19060
#        35895
#        54055
#        72357
#        92925
#        112425
#        128275
#        143045
#        163940
#        184345
#
# Disc length: 2736 seconds
#
# Revision: 4
# Processed by: cddbd v1.5.2PL0 Copyright (c) Steve Scherf et al.
# Submitted via: ExactAudioCopy v1.0b3
#
DISCID=9e0aae0b
DTITLE=Various Artist - Amazing Grace A Country Salute to Gospel
DYEAR=1995
DGENRE=Gospel
TTITLE0=Lari White - Amazing Grace
TTITLE1=John Anderson - Peace In The Valley
TTITLE2=John Berry - Blessed Assurance
TTITLE3=Martina McBride - How Great Thou Art
TTITLE4=Billy Dean and Susan Ashton - In The Garden - Susan Ashton
TTITLE5=Paul Overstreet - Mansion Over The Hilltop
TTITLE6=Shenandoah - Beulah Land
TTITLE7=Alison Krauss and the Cox Family - I'd Rather Have Jesus - Cox F
TTITLE7=amily
TTITLE8=Charlie Daniels Band - Kneel At The Cross
TTITLE9=Emmylou Harris - Precious Memories
TTITLE10=Susan Aglukark - Amazing Grace
EXTD=
EXTT0=
EXTT1=
EXTT2=
EXTT3=
EXTT4=
EXTT5=
EXTT6=
EXTT7=
EXTT8=
EXTT9=
EXTT10=
PLAYORDER=
